<svg xmlns="http://www.w3.org/2000/svg" width="1200" height="690" viewBox="0 0 1200 690"><defs><marker id="m5b6774" viewBox="0 0 8 8" refX="1.5" refY="4" markerWidth="7.5" markerHeight="7.5" markerUnits="userSpaceOnUse" orient="auto-start-reverse"><path d="M0,0.6 L8,4 L0,7.4 z" fill="#5b6774"></path></marker><marker id="mc2551a" viewBox="0 0 8 8" refX="1.5" refY="4" markerWidth="7.5" markerHeight="7.5" markerUnits="userSpaceOnUse" orient="auto-start-reverse"><path d="M0,0.6 L8,4 L0,7.4 z" fill="#c2551a"></path></marker></defs><rect width="1200" height="690" fill="#ffffff"></rect><text id="t1" x="24" y="42" font-family="'Segoe UI','Microsoft YaHei','PingFang SC','Noto Sans CJK SC',sans-serif" font-size="21" fill="#1d2731" font-weight="700">From alert to conclusion</text><text id="t2" x="24" y="64" font-family="'Segoe UI','Microsoft YaHei','PingFang SC','Noto Sans CJK SC',sans-serif" font-size="13.5" fill="#7f8a96">从告警到结论</text><line x1="24" y1="84" x2="1176" y2="84" stroke="#e1e5e9" stroke-width="1"></line><rect x="200" y="100" width="976" height="192" rx="4" fill="#f4f6f8" stroke="#e2e6ea" stroke-width="1"></rect><text id="t3" x="214" y="121" font-family="'Segoe UI','Microsoft YaHei','PingFang SC','Noto Sans CJK SC',sans-serif" font-size="10.5" fill="#5d6a77" font-weight="700" letter-spacing="1.1">NETOPS-AI SERVICE</text><text id="t4" x="214" y="137" font-family="'Segoe UI','Microsoft YaHei','PingFang SC','Noto Sans CJK SC',sans-serif" font-size="11" fill="#7f8a96">本项目服务</text><rect x="24" y="150" width="150" height="124" rx="3" fill="#ffffff" stroke="#b8c1ca" stroke-width="1.25"></rect><rect x="36" y="162" width="26" height="26" rx="3" fill="#55616d"></rect><g transform="translate(37.82,163.82) scale(0.93)" fill="none" stroke="#ffffff" stroke-width="1.7" stroke-linecap="round" stroke-linejoin="round"><path d="M7 16.5V11a5 5 0 0 1 10 0v5.5l1.5 1.5h-13z"></path><path d="M10.5 20.5h3"></path></g><text id="t5" x="72" y="175" font-family="'Segoe UI','Microsoft YaHei','PingFang SC','Noto Sans CJK SC',sans-serif" font-size="13.5" fill="#1d2731" font-weight="600">Zabbix alert</text><text id="t6" x="72" y="192" font-family="'Segoe UI','Microsoft YaHei','PingFang SC','Noto Sans CJK SC',sans-serif" font-size="11.5" fill="#7f8a96">Zabbix 告警</text><line x1="36" y1="204" x2="162" y2="204" stroke="#e1e5e9" stroke-width="1"></line><text id="t7" x="38" y="223" font-family="'Segoe UI','Microsoft YaHei','PingFang SC','Noto Sans CJK SC',sans-serif" font-size="12" fill="#3b4754">trigger fires</text><text id="t8" x="38" y="240" font-family="'Segoe UI','Microsoft YaHei','PingFang SC','Noto Sans CJK SC',sans-serif" font-size="11.5" fill="#7f8a96">触发器触发</text><rect x="214" y="150" width="168" height="124" rx="3" fill="#ffffff" stroke="#1f5fae" stroke-width="1.25"></rect><rect x="226" y="162" width="26" height="26" rx="3" fill="#1f5fae"></rect><g transform="translate(227.82,163.82) scale(0.93)" fill="none" stroke="#ffffff" stroke-width="1.7" stroke-linecap="round" stroke-linejoin="round"><path d="M3.5 12h10"></path><path d="M10.5 8.5 14 12l-3.5 3.5"></path><path d="M15.5 5h4v14h-4"></path></g><text id="t9" x="262" y="175" font-family="'Segoe UI','Microsoft YaHei','PingFang SC','Noto Sans CJK SC',sans-serif" font-size="13.5" fill="#1d2731" font-weight="600">Webhook</text><text id="t10" x="262" y="192" font-family="'Segoe UI','Microsoft YaHei','PingFang SC','Noto Sans CJK SC',sans-serif" font-size="11.5" fill="#7f8a96">接收告警</text><line x1="226" y1="204" x2="370" y2="204" stroke="#e1e5e9" stroke-width="1"></line><text id="t11" x="228" y="223" font-family="'Segoe UI','Microsoft YaHei','PingFang SC','Noto Sans CJK SC',sans-serif" font-size="12" fill="#3b4754"><tspan font-family="'Cascadia Mono',Consolas,'Courier New',monospace" font-size="11.5">POST /webhooks/zabbix</tspan></text><text id="t12" x="228" y="240" font-family="'Segoe UI','Microsoft YaHei','PingFang SC','Noto Sans CJK SC',sans-serif" font-size="11.5" fill="#7f8a96">立刻返回 200（60 秒超时）</text><rect x="409" y="150" width="168" height="124" rx="3" fill="#ffffff" stroke="#1f5fae" stroke-width="1.25"></rect><rect x="421" y="162" width="26" height="26" rx="3" fill="#1f5fae"></rect><g transform="translate(422.82,163.82) scale(0.93)" fill="none" stroke="#ffffff" stroke-width="1.7" stroke-linecap="round" stroke-linejoin="round"><path d="M4.5 5.5h15l-5.8 7v5.5l-3.4 1.8v-7.3z"></path></g><text id="t13" x="457" y="175" font-family="'Segoe UI','Microsoft YaHei','PingFang SC','Noto Sans CJK SC',sans-serif" font-size="13" fill="#1d2731" font-weight="600">Collect &amp; merge</text><text id="t14" x="457" y="192" font-family="'Segoe UI','Microsoft YaHei','PingFang SC','Noto Sans CJK SC',sans-serif" font-size="11.5" fill="#7f8a96">收集窗口与合并</text><line x1="421" y1="204" x2="565" y2="204" stroke="#e1e5e9" stroke-width="1"></line><text id="t15" x="423" y="223" font-family="'Segoe UI','Microsoft YaHei','PingFang SC','Noto Sans CJK SC',sans-serif" font-size="12" fill="#3b4754">related alerts →</text><text id="t16" x="423" y="240" font-family="'Segoe UI','Microsoft YaHei','PingFang SC','Noto Sans CJK SC',sans-serif" font-size="12" fill="#3b4754">one incident</text><text id="t17" x="423" y="257" font-family="'Segoe UI','Microsoft YaHei','PingFang SC','Noto Sans CJK SC',sans-serif" font-size="11.5" fill="#7f8a96">相关告警合并成一个事件</text><rect x="604" y="150" width="168" height="124" rx="3" fill="#ffffff" stroke="#c2551a" stroke-width="1.25"></rect><rect x="616" y="162" width="26" height="26" rx="3" fill="#c2551a"></rect><g transform="translate(617.82,163.82) scale(0.93)" fill="none" stroke="#ffffff" stroke-width="1.7" stroke-linecap="round" stroke-linejoin="round"><circle cx="10.5" cy="10.5" r="5.5"></circle><path d="m14.5 14.5 5 5"></path></g><text id="t18" x="652" y="175" font-family="'Segoe UI','Microsoft YaHei','PingFang SC','Noto Sans CJK SC',sans-serif" font-size="13.5" fill="#1d2731" font-weight="600">Investigate</text><text id="t19" x="652" y="192" font-family="'Segoe UI','Microsoft YaHei','PingFang SC','Noto Sans CJK SC',sans-serif" font-size="11.5" fill="#7f8a96">取证</text><line x1="616" y1="204" x2="760" y2="204" stroke="#e1e5e9" stroke-width="1"></line><text id="t20" x="618" y="223" font-family="'Segoe UI','Microsoft YaHei','PingFang SC','Noto Sans CJK SC',sans-serif" font-size="12" fill="#3b4754">tool-calling loop,</text><text id="t21" x="618" y="240" font-family="'Segoe UI','Microsoft YaHei','PingFang SC','Noto Sans CJK SC',sans-serif" font-size="12" fill="#3b4754">read-only tools</text><text id="t22" x="618" y="257" font-family="'Segoe UI','Microsoft YaHei','PingFang SC','Noto Sans CJK SC',sans-serif" font-size="11.5" fill="#7f8a96">工具循环 · 只读工具</text><rect rx="2" fill="#c2551a" x="726.8" y="142.5" width="33.3" height="15"></rect><text id="t23" x="754" y="153.6" font-family="'Segoe UI','Microsoft YaHei','PingFang SC','Noto Sans CJK SC',sans-serif" font-size="9.5" fill="#ffffff" font-weight="700" text-anchor="end" letter-spacing="0.8">LLM</text><rect x="799" y="150" width="168" height="124" rx="3" fill="#ffffff" stroke="#c2551a" stroke-width="1.25"></rect><rect x="811" y="162" width="26" height="26" rx="3" fill="#c2551a"></rect><g transform="translate(812.82,163.82) scale(0.93)" fill="none" stroke="#ffffff" stroke-width="1.7" stroke-linecap="round" stroke-linejoin="round"><path d="M6 3.5h8.5L18 7v13.5H6z"></path><path d="m9 13.5 2.2 2.2 4-4.2"></path></g><text id="t24" x="847" y="175" font-family="'Segoe UI','Microsoft YaHei','PingFang SC','Noto Sans CJK SC',sans-serif" font-size="13.5" fill="#1d2731" font-weight="600">Conclude</text><text id="t25" x="847" y="192" font-family="'Segoe UI','Microsoft YaHei','PingFang SC','Noto Sans CJK SC',sans-serif" font-size="11.5" fill="#7f8a96">给出结论</text><line x1="811" y1="204" x2="955" y2="204" stroke="#e1e5e9" stroke-width="1"></line><text id="t26" x="813" y="223" font-family="'Segoe UI','Microsoft YaHei','PingFang SC','Noto Sans CJK SC',sans-serif" font-size="12" fill="#3b4754">strict-schema</text><text id="t27" x="813" y="240" font-family="'Segoe UI','Microsoft YaHei','PingFang SC','Noto Sans CJK SC',sans-serif" font-size="12" fill="#3b4754">structured output</text><text id="t28" x="813" y="257" font-family="'Segoe UI','Microsoft YaHei','PingFang SC','Noto Sans CJK SC',sans-serif" font-size="11.5" fill="#7f8a96">严格结构化输出</text><rect rx="2" fill="#c2551a" x="921.8" y="142.5" width="33.3" height="15"></rect><text id="t29" x="949" y="153.6" font-family="'Segoe UI','Microsoft YaHei','PingFang SC','Noto Sans CJK SC',sans-serif" font-size="9.5" fill="#ffffff" font-weight="700" text-anchor="end" letter-spacing="0.8">LLM</text><rect x="994" y="150" width="168" height="124" rx="3" fill="#ffffff" stroke="#1f5fae" stroke-width="1.25"></rect><rect x="1006" y="162" width="26" height="26" rx="3" fill="#1f5fae"></rect><g transform="translate(1007.82,163.82) scale(0.93)" fill="none" stroke="#ffffff" stroke-width="1.7" stroke-linecap="round" stroke-linejoin="round"><path d="M6 3.5h8.5L18 7v13.5H6z"></path><path d="M9 10h6M9 13.5h6M9 17h4"></path></g><text id="t30" x="1042" y="175" font-family="'Segoe UI','Microsoft YaHei','PingFang SC','Noto Sans CJK SC',sans-serif" font-size="13.5" fill="#1d2731" font-weight="600">Report</text><text id="t31" x="1042" y="192" font-family="'Segoe UI','Microsoft YaHei','PingFang SC','Noto Sans CJK SC',sans-serif" font-size="11.5" fill="#7f8a96">上报与落盘</text><line x1="1006" y1="204" x2="1150" y2="204" stroke="#e1e5e9" stroke-width="1"></line><text id="t32" x="1008" y="223" font-family="'Segoe UI','Microsoft YaHei','PingFang SC','Noto Sans CJK SC',sans-serif" font-size="12" fill="#3b4754">card + record on disk</text><text id="t33" x="1008" y="240" font-family="'Segoe UI','Microsoft YaHei','PingFang SC','Noto Sans CJK SC',sans-serif" font-size="11.5" fill="#7f8a96">卡片 + 落盘记录</text><path d="M 174 212 L 207.5 212" fill="none" stroke="#5b6774" stroke-width="1.4" stroke-linejoin="round" marker-end="url(#m5b6774)"></path><path d="M 382 212 L 402.5 212" fill="none" stroke="#5b6774" stroke-width="1.4" stroke-linejoin="round" marker-end="url(#m5b6774)"></path><path d="M 577 212 L 597.5 212" fill="none" stroke="#5b6774" stroke-width="1.4" stroke-linejoin="round" marker-end="url(#m5b6774)"></path><path d="M 772 212 L 792.5 212" fill="none" stroke="#5b6774" stroke-width="1.4" stroke-linejoin="round" marker-end="url(#m5b6774)"></path><path d="M 967 212 L 987.5 212" fill="none" stroke="#5b6774" stroke-width="1.4" stroke-linejoin="round" marker-end="url(#m5b6774)"></path><path d="M 1078 274 L 1078 333.5" fill="none" stroke="#5b6774" stroke-width="1.4" stroke-linejoin="round" marker-end="url(#m5b6774)"></path><path d="M 1078 312 L 883 312 L 883 333.5" fill="none" stroke="#5b6774" stroke-width="1.4" stroke-linejoin="round" marker-end="url(#m5b6774)"></path><circle cx="1078" cy="312" r="3" fill="#5b6774"></circle><rect x="799" y="340" width="168" height="124" rx="3" fill="#ffffff" stroke="#b8c1ca" stroke-width="1.25"></rect><rect x="811" y="352" width="26" height="26" rx="3" fill="#55616d"></rect><g transform="translate(812.82,353.82) scale(0.93)" fill="none" stroke="#ffffff" stroke-width="1.7" stroke-linecap="round" stroke-linejoin="round"><path d="M4 5.5h16v11H10.5L6.5 20v-3.5H4z"></path><path d="M8 10h8M8 13h5"></path></g><text id="t34" x="847" y="365" font-family="'Segoe UI','Microsoft YaHei','PingFang SC','Noto Sans CJK SC',sans-serif" font-size="13.5" fill="#1d2731" font-weight="600">Feishu card</text><text id="t35" x="847" y="382" font-family="'Segoe UI','Microsoft YaHei','PingFang SC','Noto Sans CJK SC',sans-serif" font-size="11.5" fill="#7f8a96">飞书卡片</text><line x1="811" y1="394" x2="955" y2="394" stroke="#e1e5e9" stroke-width="1"></line><text id="t36" x="813" y="413" font-family="'Segoe UI','Microsoft YaHei','PingFang SC','Noto Sans CJK SC',sans-serif" font-size="12" fill="#3b4754">conclusion · evidence ·</text><text id="t37" x="813" y="430" font-family="'Segoe UI','Microsoft YaHei','PingFang SC','Noto Sans CJK SC',sans-serif" font-size="12" fill="#3b4754">next step</text><text id="t38" x="813" y="447" font-family="'Segoe UI','Microsoft YaHei','PingFang SC','Noto Sans CJK SC',sans-serif" font-size="11.5" fill="#7f8a96">结论 · 证据 · 下一步</text><rect x="994" y="340" width="168" height="124" rx="3" fill="#ffffff" stroke="#b8c1ca" stroke-width="1.25"></rect><rect x="1006" y="352" width="26" height="26" rx="3" fill="#55616d"></rect><g transform="translate(1007.82,353.82) scale(0.93)" fill="none" stroke="#ffffff" stroke-width="1.7" stroke-linecap="round" stroke-linejoin="round"><rect x="3.5" y="4.5" width="17" height="15" rx="1"></rect><path d="M3.5 8.5h17M8 16.5v-3M12 16.5v-5M16 16.5v-2"></path></g><text id="t39" x="1042" y="365" font-family="'Segoe UI','Microsoft YaHei','PingFang SC','Noto Sans CJK SC',sans-serif" font-size="13.5" fill="#1d2731" font-weight="600">Dashboard</text><text id="t40" x="1042" y="382" font-family="'Segoe UI','Microsoft YaHei','PingFang SC','Noto Sans CJK SC',sans-serif" font-size="11.5" fill="#7f8a96">网页看板</text><line x1="1006" y1="394" x2="1150" y2="394" stroke="#e1e5e9" stroke-width="1"></line><text id="t41" x="1008" y="413" font-family="'Segoe UI','Microsoft YaHei','PingFang SC','Noto Sans CJK SC',sans-serif" font-size="12" fill="#3b4754">incidents · audit · topology</text><text id="t42" x="1008" y="430" font-family="'Segoe UI','Microsoft YaHei','PingFang SC','Noto Sans CJK SC',sans-serif" font-size="11.5" fill="#7f8a96">故障 · 审计 · 拓扑</text><rect x="24" y="320" width="740" height="352" rx="4" fill="#f4f6f8" stroke="#e2e6ea" stroke-width="1"></rect><text id="t43" x="38" y="341" font-family="'Segoe UI','Microsoft YaHei','PingFang SC','Noto Sans CJK SC',sans-serif" font-size="10.5" fill="#5d6a77" font-weight="700" letter-spacing="1.1">READ-ONLY TOOLS</text><text id="t44" x="38" y="357" font-family="'Segoe UI','Microsoft YaHei','PingFang SC','Noto Sans CJK SC',sans-serif" font-size="11" fill="#7f8a96">agent 能碰到的一切都是只读的，并且要过闸门</text><path d="M 688 274 L 688 365.5" fill="none" stroke="#c2551a" stroke-width="1.4" stroke-dasharray="5 4" stroke-linejoin="round" marker-end="url(#mc2551a)"></path><rect rx="2" fill="#ffffff" x="692.0" y="295.5" width="59.7" height="18.0"></rect><text id="t45" x="696" y="309" font-family="'Segoe UI','Microsoft YaHei','PingFang SC','Noto Sans CJK SC',sans-serif" font-size="11" fill="#c2551a">uses · 调用</text><rect x="38" y="372" width="712" height="198" rx="3" fill="#ffffff" stroke="#b8c1ca" stroke-width="1.25"></rect><rect x="38.6" y="372.6" width="710.8" height="29" fill="#fafbfc"></rect><text id="t46" x="54" y="391" font-family="'Segoe UI','Microsoft YaHei','PingFang SC','Noto Sans CJK SC',sans-serif" font-size="10" fill="#5d6a77" font-weight="700" letter-spacing="1">TOOL · 工具</text><text id="t47" x="368" y="391" font-family="'Segoe UI','Microsoft YaHei','PingFang SC','Noto Sans CJK SC',sans-serif" font-size="10" fill="#5d6a77" font-weight="700" letter-spacing="1">CONSTRAINT · 约束</text><line x1="38" y1="402" x2="750" y2="402" stroke="#e1e5e9" stroke-width="1"></line><rect x="52" y="412" width="22" height="22" rx="3" fill="#55616d"></rect><g transform="translate(53.54,413.54) scale(0.79)" fill="none" stroke="#ffffff" stroke-width="1.7" stroke-linecap="round" stroke-linejoin="round"><path d="M9 4.5c-2 0-2.3 1.4-2.3 3.4S6 11 4.8 12c1.2 1 1.9 2.1 1.9 4.1s.3 3.4 2.3 3.4"></path><path d="M15 4.5c2 0 2.3 1.4 2.3 3.4S18 11 19.2 12c-1.2 1-1.9 2.1-1.9 4.1s-.3 3.4-2.3 3.4"></path></g><text id="t48" x="86" y="421" font-family="'Segoe UI','Microsoft YaHei','PingFang SC','Noto Sans CJK SC',sans-serif" font-size="12.5" fill="#1d2731" font-weight="600">Zabbix API</text><text id="t49" x="86" y="437" font-family="'Segoe UI','Microsoft YaHei','PingFang SC','Noto Sans CJK SC',sans-serif" font-size="11" fill="#7f8a96">Zabbix 只读查询</text><g transform="translate(346,411) scale(0.58)" fill="none" stroke="#1f5fae" stroke-width="2.74" stroke-linecap="round" stroke-linejoin="round"><rect x="5.5" y="10.5" width="13" height="10" rx="1"></rect><path d="M8.5 10.5V8a3.5 3.5 0 0 1 7 0v2.5M12 14.5v2.5"></path></g><text id="t50" x="368" y="421" font-family="'Segoe UI','Microsoft YaHei','PingFang SC','Noto Sans CJK SC',sans-serif" font-size="12" fill="#3b4754">method whitelist</text><text id="t51" x="368" y="437" font-family="'Segoe UI','Microsoft YaHei','PingFang SC','Noto Sans CJK SC',sans-serif" font-size="11" fill="#7f8a96">方法白名单</text><line x1="38" y1="444" x2="750" y2="444" stroke="#e1e5e9" stroke-width="1"></line><rect x="52" y="454" width="22" height="22" rx="3" fill="#55616d"></rect><g transform="translate(53.54,455.54) scale(0.79)" fill="none" stroke="#ffffff" stroke-width="1.7" stroke-linecap="round" stroke-linejoin="round"><rect x="3.5" y="4.5" width="17" height="15" rx="1"></rect><path d="m7.5 10 2.5 2.2-2.5 2.2M12.5 15h4"></path></g><text id="t52" x="86" y="463" font-family="'Cascadia Mono',Consolas,'Courier New',monospace" font-size="12.5" fill="#1d2731" font-weight="600">device_show</text><text id="t53" x="86" y="479" font-family="'Segoe UI','Microsoft YaHei','PingFang SC','Noto Sans CJK SC',sans-serif" font-size="11" fill="#7f8a96">设备 show 命令</text><g transform="translate(346,453) scale(0.58)" fill="none" stroke="#1f5fae" stroke-width="2.74" stroke-linecap="round" stroke-linejoin="round"><rect x="5.5" y="10.5" width="13" height="10" rx="1"></rect><path d="M8.5 10.5V8a3.5 3.5 0 0 1 7 0v2.5M12 14.5v2.5"></path></g><text id="t54" x="368" y="463" font-family="'Segoe UI','Microsoft YaHei','PingFang SC','Noto Sans CJK SC',sans-serif" font-size="12" fill="#3b4754">command whitelist + read-only account</text><text id="t55" x="368" y="479" font-family="'Segoe UI','Microsoft YaHei','PingFang SC','Noto Sans CJK SC',sans-serif" font-size="11" fill="#7f8a96">命令白名单 + 只读账号</text><line x1="38" y1="486" x2="750" y2="486" stroke="#e1e5e9" stroke-width="1"></line><rect x="52" y="496" width="22" height="22" rx="3" fill="#55616d"></rect><g transform="translate(53.54,497.54) scale(0.79)" fill="none" stroke="#ffffff" stroke-width="1.7" stroke-linecap="round" stroke-linejoin="round"><circle cx="12" cy="5.5" r="2.3"></circle><circle cx="5.5" cy="18" r="2.3"></circle><circle cx="18.5" cy="18" r="2.3"></circle><path d="M11 7.6 6.6 16M13 7.6l4.4 8.4M7.8 18h8.4"></path></g><text id="t56" x="86" y="505" font-family="'Cascadia Mono',Consolas,'Courier New',monospace" font-size="12.5" fill="#1d2731" font-weight="600">topology_neighbors</text><text id="t57" x="86" y="521" font-family="'Segoe UI','Microsoft YaHei','PingFang SC','Noto Sans CJK SC',sans-serif" font-size="11" fill="#7f8a96">拓扑邻居</text><g transform="translate(346,495) scale(0.58)" fill="none" stroke="#1f5fae" stroke-width="2.74" stroke-linecap="round" stroke-linejoin="round"><rect x="5.5" y="10.5" width="13" height="10" rx="1"></rect><path d="M8.5 10.5V8a3.5 3.5 0 0 1 7 0v2.5M12 14.5v2.5"></path></g><text id="t58" x="368" y="505" font-family="'Segoe UI','Microsoft YaHei','PingFang SC','Noto Sans CJK SC',sans-serif" font-size="12" fill="#3b4754"><tspan font-family="'Cascadia Mono',Consolas,'Courier New',monospace" font-size="11.5">topology.yaml</tspan></text><text id="t59" x="368" y="521" font-family="'Segoe UI','Microsoft YaHei','PingFang SC','Noto Sans CJK SC',sans-serif" font-size="11" fill="#7f8a96">本地拓扑文件</text><line x1="38" y1="528" x2="750" y2="528" stroke="#e1e5e9" stroke-width="1"></line><rect x="52" y="538" width="22" height="22" rx="3" fill="#55616d"></rect><g transform="translate(53.54,539.54) scale(0.79)" fill="none" stroke="#ffffff" stroke-width="1.7" stroke-linecap="round" stroke-linejoin="round"><path d="M4 5.5h5.5c1.4 0 2.5 1.1 2.5 2.5v11.5c0-1-.8-1.8-1.8-1.8H4z"></path><path d="M20 5.5h-5.5C13.1 5.5 12 6.6 12 8v11.5c0-1 .8-1.8 1.8-1.8H20z"></path></g><text id="t60" x="86" y="547" font-family="'Cascadia Mono',Consolas,'Courier New',monospace" font-size="12.5" fill="#1d2731" font-weight="600">sop_lookup</text><text id="t61" x="86" y="563" font-family="'Segoe UI','Microsoft YaHei','PingFang SC','Noto Sans CJK SC',sans-serif" font-size="11" fill="#7f8a96">剧本查询</text><g transform="translate(346,537) scale(0.58)" fill="none" stroke="#1f5fae" stroke-width="2.74" stroke-linecap="round" stroke-linejoin="round"><rect x="5.5" y="10.5" width="13" height="10" rx="1"></rect><path d="M8.5 10.5V8a3.5 3.5 0 0 1 7 0v2.5M12 14.5v2.5"></path></g><text id="t62" x="368" y="547" font-family="'Segoe UI','Microsoft YaHei','PingFang SC','Noto Sans CJK SC',sans-serif" font-size="12" fill="#3b4754">advises, never executes</text><text id="t63" x="368" y="563" font-family="'Segoe UI','Microsoft YaHei','PingFang SC','Noto Sans CJK SC',sans-serif" font-size="11" fill="#7f8a96">只建议，不执行</text><text id="t64" x="38" y="636" font-family="'Segoe UI','Microsoft YaHei','PingFang SC','Noto Sans CJK SC',sans-serif" font-size="12.5" fill="#1d2731" font-weight="600">No tool writes configuration. A rejected command is never sent to the device.</text><text id="t65" x="38" y="654" font-family="'Segoe UI','Microsoft YaHei','PingFang SC','Noto Sans CJK SC',sans-serif" font-size="11.5" fill="#7f8a96">没有任何工具写配置；被拒绝的命令根本不会发给设备。</text><text id="t66" x="799" y="520" font-family="'Segoe UI','Microsoft YaHei','PingFang SC','Noto Sans CJK SC',sans-serif" font-size="10" fill="#5d6a77" font-weight="700" letter-spacing="1">LEGEND · 图例</text><rect x="799" y="532" width="12" height="12" rx="2" fill="#1f5fae"></rect><text id="t67" x="821" y="542" font-family="'Segoe UI','Microsoft YaHei','PingFang SC','Noto Sans CJK SC',sans-serif" font-size="12" fill="#3b4754">netops-ai code</text><text id="t68" x="821" y="557" font-family="'Segoe UI','Microsoft YaHei','PingFang SC','Noto Sans CJK SC',sans-serif" font-size="11" fill="#7f8a96">本项目代码</text><rect x="799" y="566" width="12" height="12" rx="2" fill="#c2551a"></rect><text id="t69" x="821" y="576" font-family="'Segoe UI','Microsoft YaHei','PingFang SC','Noto Sans CJK SC',sans-serif" font-size="12" fill="#3b4754">LLM call</text><text id="t70" x="821" y="591" font-family="'Segoe UI','Microsoft YaHei','PingFang SC','Noto Sans CJK SC',sans-serif" font-size="11" fill="#7f8a96">调用大模型</text><rect x="799" y="600" width="12" height="12" rx="2" fill="#55616d"></rect><text id="t71" x="821" y="610" font-family="'Segoe UI','Microsoft YaHei','PingFang SC','Noto Sans CJK SC',sans-serif" font-size="12" fill="#3b4754">external system / output</text><text id="t72" x="821" y="625" font-family="'Segoe UI','Microsoft YaHei','PingFang SC','Noto Sans CJK SC',sans-serif" font-size="11" fill="#7f8a96">外部系统 / 输出</text><path d="M 799 640 L 822.5 640" fill="none" stroke="#c2551a" stroke-width="1.4" stroke-dasharray="5 4" stroke-linejoin="round" marker-end="url(#mc2551a)"></path><text id="t73" x="839" y="644" font-family="'Segoe UI','Microsoft YaHei','PingFang SC','Noto Sans CJK SC',sans-serif" font-size="12" fill="#3b4754">tool calls (read-only)</text><text id="t74" x="839" y="659" font-family="'Segoe UI','Microsoft YaHei','PingFang SC','Noto Sans CJK SC',sans-serif" font-size="11" fill="#7f8a96">工具调用（只读）</text></svg>