<svg xmlns="http://www.w3.org/2000/svg" width="1200" height="1024" viewBox="0 0 1200 1024"><defs><marker id="m5b6774" viewBox="0 0 8 8" refX="1.5" refY="4" markerWidth="7.5" markerHeight="7.5" markerUnits="userSpaceOnUse" orient="auto-start-reverse"><path d="M0,0.6 L8,4 L0,7.4 z" fill="#5b6774"></path></marker><marker id="m8a96a3" viewBox="0 0 8 8" refX="1.5" refY="4" markerWidth="7.5" markerHeight="7.5" markerUnits="userSpaceOnUse" orient="auto-start-reverse"><path d="M0,0.6 L8,4 L0,7.4 z" fill="#8a96a3"></path></marker><marker id="mc2551a" viewBox="0 0 8 8" refX="1.5" refY="4" markerWidth="7.5" markerHeight="7.5" markerUnits="userSpaceOnUse" orient="auto-start-reverse"><path d="M0,0.6 L8,4 L0,7.4 z" fill="#c2551a"></path></marker><marker id="m1f5fae" viewBox="0 0 8 8" refX="1.5" refY="4" markerWidth="7.5" markerHeight="7.5" markerUnits="userSpaceOnUse" orient="auto-start-reverse"><path d="M0,0.6 L8,4 L0,7.4 z" fill="#1f5fae"></path></marker></defs><rect width="100%" height="100%" fill="#ffffff"></rect><text id="t1" x="24" y="42" font-family="'Segoe UI','Microsoft YaHei','PingFang SC','Noto Sans CJK SC',sans-serif" font-size="21" fill="#1d2731" font-weight="700">对话式巡检计划：LangGraph 流程</text><text id="t2" x="24" y="64" font-family="'Segoe UI','Microsoft YaHei','PingFang SC','Noto Sans CJK SC',sans-serif" font-size="13.5" fill="#5d6a77">两条入口、一个主循环；三项都确认之前，什么都不保存</text><line x1="24" y1="84" x2="1176" y2="84" stroke="#e1e5e9" stroke-width="1"></line><rect x="264" y="100" width="912" height="98" rx="4" fill="#f4f6f8" stroke="#e2e6ea" stroke-width="1"></rect><text id="t3" x="278" y="122" font-family="'Segoe UI','Microsoft YaHei','PingFang SC','Noto Sans CJK SC',sans-serif" font-size="12" fill="#5d6a77" font-weight="700">路径一 · 新巡检计划</text><text id="t4" x="278" y="140" font-family="'Segoe UI','Microsoft YaHei','PingFang SC','Noto Sans CJK SC',sans-serif" font-size="11.5" fill="#5d6a77">从空草案开始</text><rect x="264" y="206" width="912" height="98" rx="4" fill="#f4f6f8" stroke="#e2e6ea" stroke-width="1"></rect><text id="t5" x="278" y="228" font-family="'Segoe UI','Microsoft YaHei','PingFang SC','Noto Sans CJK SC',sans-serif" font-size="12" fill="#5d6a77" font-weight="700">路径二 · 现有巡检计划</text><text id="t6" x="278" y="246" font-family="'Segoe UI','Microsoft YaHei','PingFang SC','Noto Sans CJK SC',sans-serif" font-size="11.5" fill="#5d6a77">挑一个已保存的计划作为草案</text><rect x="24" y="156" width="210" height="104" rx="3" fill="#ffffff" stroke="#b8c1ca" stroke-width="1.25"></rect><rect x="36" y="168" width="26" height="26" rx="3" fill="#55616d"></rect><g transform="translate(37.82,169.82) scale(0.93)" fill="none" stroke="#ffffff" stroke-width="1.7" stroke-linecap="round" stroke-linejoin="round"><circle cx="6.5" cy="5.5" r="2"></circle><circle cx="6.5" cy="18.5" r="2"></circle><circle cx="17.5" cy="9" r="2"></circle><path d="M6.5 7.5v9M6.5 14c0-3.5 3.5-5 9-5"></path></g><text id="t7" x="72" y="186" font-family="'Cascadia Mono',Consolas,'Courier New',monospace" font-size="13.5" fill="#1d2731" font-weight="600">route_intent</text><line x1="36" y1="205" x2="222" y2="205" stroke="#e1e5e9" stroke-width="1"></line><text id="t8" x="38" y="223" font-family="'Segoe UI','Microsoft YaHei','PingFang SC','Noto Sans CJK SC',sans-serif" font-size="12.5" fill="#3b4754">新建计划，</text><text id="t9" x="38" y="242" font-family="'Segoe UI','Microsoft YaHei','PingFang SC','Noto Sans CJK SC',sans-serif" font-size="12.5" fill="#3b4754">还是调整现有计划？</text><rect x="470" y="122" width="330" height="66" rx="3" fill="#ffffff" stroke="#b8c1ca" stroke-width="1.25"></rect><rect x="482" y="134" width="26" height="26" rx="3" fill="#55616d"></rect><g transform="translate(483.82,135.82) scale(0.93)" fill="none" stroke="#ffffff" stroke-width="1.7" stroke-linecap="round" stroke-linejoin="round"><path d="M4 5.5h16v11H10.5L6.5 20v-3.5H4z"></path><path d="M8 10h8M8 13h5"></path></g><text id="t10" x="518" y="152" font-family="'Cascadia Mono',Consolas,'Courier New',monospace" font-size="13.5" fill="#1d2731" font-weight="600">opening</text><text id="t11" x="484" y="175" font-family="'Segoe UI','Microsoft YaHei','PingFang SC','Noto Sans CJK SC',sans-serif" font-size="12.5" fill="#3b4754">开场白 + 拓扑概要 + 3 个快捷回复</text><rect x="470" y="228" width="230" height="66" rx="3" fill="#ffffff" stroke="#b8c1ca" stroke-width="1.25"></rect><rect x="482" y="240" width="26" height="26" rx="3" fill="#55616d"></rect><g transform="translate(483.82,241.82) scale(0.93)" fill="none" stroke="#ffffff" stroke-width="1.7" stroke-linecap="round" stroke-linejoin="round"><path d="M9 6.5h11M9 12h11M9 17.5h11"></path><path d="M4.5 6.5h.01M4.5 12h.01M4.5 17.5h.01"></path></g><text id="t12" x="518" y="258" font-family="'Cascadia Mono',Consolas,'Courier New',monospace" font-size="13.5" fill="#1d2731" font-weight="600">list_plans</text><text id="t13" x="484" y="281" font-family="'Segoe UI','Microsoft YaHei','PingFang SC','Noto Sans CJK SC',sans-serif" font-size="12.5" fill="#3b4754">列出已保存的计划供挑选</text><rect x="790" y="228" width="280" height="66" rx="3" fill="#ffffff" stroke="#b8c1ca" stroke-width="1.25"></rect><rect x="802" y="240" width="26" height="26" rx="3" fill="#55616d"></rect><g transform="translate(803.82,241.82) scale(0.93)" fill="none" stroke="#ffffff" stroke-width="1.7" stroke-linecap="round" stroke-linejoin="round"><path d="M6 3.5h8.5L18 7v13.5H6z"></path><path d="M9 10h6M9 13.5h6M9 17h4"></path></g><text id="t14" x="838" y="258" font-family="'Cascadia Mono',Consolas,'Courier New',monospace" font-size="13.5" fill="#1d2731" font-weight="600">load_plan</text><text id="t15" x="804" y="281" font-family="'Segoe UI','Microsoft YaHei','PingFang SC','Noto Sans CJK SC',sans-serif" font-size="12.5" fill="#3b4754">载入为草案，问要改什么</text><path d="M 234 208 L 250 208 L 250 155 L 463.5 155" fill="none" stroke="#5b6774" stroke-width="1.4" stroke-linejoin="round" marker-end="url(#m5b6774)"></path><path d="M 250 208 L 250 261 L 463.5 261" fill="none" stroke="#5b6774" stroke-width="1.4" stroke-linejoin="round" marker-end="url(#m5b6774)"></path><circle cx="250" cy="208" r="3" fill="#5b6774"></circle><path d="M 700 261 L 783.5 261" fill="none" stroke="#5b6774" stroke-width="1.4" stroke-linejoin="round" marker-end="url(#m5b6774)"></path><rect rx="2" fill="#ffffff" x="717.0" y="238.5" width="56.5" height="18.0"></rect><text id="t16" x="745" y="252" font-family="'Segoe UI','Microsoft YaHei','PingFang SC','Noto Sans CJK SC',sans-serif" font-size="11.5" fill="#5d6a77" text-anchor="middle">用户选定</text><path d="M 800 155 L 1150 155 L 1150 330 L 215 330 L 215 393.5" fill="none" stroke="#8a96a3" stroke-width="1.4" stroke-linejoin="round" marker-end="url(#m8a96a3)"></path><path d="M 1070 261 L 1150 261" fill="none" stroke="#8a96a3" stroke-width="1.4" stroke-linejoin="round"></path><circle cx="1150" cy="261" r="3" fill="#8a96a3"></circle><rect rx="2" fill="#ffffff" x="583.2" y="309.5" width="193.8" height="18.0"></rect><text id="t17" x="680" y="323" font-family="'Segoe UI','Microsoft YaHei','PingFang SC','Noto Sans CJK SC',sans-serif" font-size="11.5" fill="#5d6a77" text-anchor="middle">用户的下一条消息 → gather_context</text><rect x="24" y="346" width="1152" height="370" rx="4" fill="#f4f6f8" stroke="#e2e6ea" stroke-width="1"></rect><text id="t18" x="38" y="368" font-family="'Segoe UI','Microsoft YaHei','PingFang SC','Noto Sans CJK SC',sans-serif" font-size="12" fill="#5d6a77" font-weight="700">对话主循环</text><text id="t19" x="38" y="386" font-family="'Segoe UI','Microsoft YaHei','PingFang SC','Noto Sans CJK SC',sans-serif" font-size="11.5" fill="#5d6a77">用户每发一条消息走一遍</text><rect x="50" y="400" width="190" height="104" rx="3" fill="#ffffff" stroke="#b8c1ca" stroke-width="1.25"></rect><rect x="62" y="412" width="26" height="26" rx="3" fill="#55616d"></rect><g transform="translate(63.82,413.82) scale(0.93)" fill="none" stroke="#ffffff" stroke-width="1.7" stroke-linecap="round" stroke-linejoin="round"><path d="M9 6.5h11M9 12h11M9 17.5h11"></path><path d="M4.5 6.5h.01M4.5 12h.01M4.5 17.5h.01"></path></g><text id="t20" x="98" y="430" font-family="'Cascadia Mono',Consolas,'Courier New',monospace" font-size="13.5" fill="#1d2731" font-weight="600">gather_context</text><line x1="62" y1="449" x2="228" y2="449" stroke="#e1e5e9" stroke-width="1"></line><text id="t21" x="64" y="467" font-family="'Segoe UI','Microsoft YaHei','PingFang SC','Noto Sans CJK SC',sans-serif" font-size="12.5" fill="#3b4754">开始一轮：用户</text><text id="t22" x="64" y="486" font-family="'Segoe UI','Microsoft YaHei','PingFang SC','Noto Sans CJK SC',sans-serif" font-size="12.5" fill="#3b4754">给出命令了吗？</text><rect x="340" y="400" width="200" height="104" rx="3" fill="#ffffff" stroke="#c2551a" stroke-width="1.25"></rect><rect x="352" y="412" width="26" height="26" rx="3" fill="#c2551a"></rect><g transform="translate(353.82,413.82) scale(0.93)" fill="none" stroke="#ffffff" stroke-width="1.7" stroke-linecap="round" stroke-linejoin="round"><rect x="7" y="7" width="10" height="10" rx="1"></rect><path d="M10 4v3M14 4v3M10 17v3M14 17v3M4 10h3M4 14h3M17 10h3M17 14h3"></path></g><text id="t23" x="388" y="430" font-family="'Cascadia Mono',Consolas,'Courier New',monospace" font-size="13.5" fill="#1d2731" font-weight="600">propose</text><line x1="352" y1="449" x2="528" y2="449" stroke="#e1e5e9" stroke-width="1"></line><text id="t24" x="354" y="467" font-family="'Segoe UI','Microsoft YaHei','PingFang SC','Noto Sans CJK SC',sans-serif" font-size="12.5" fill="#3b4754">结构化输出：</text><text id="t25" x="354" y="486" font-family="'Segoe UI','Microsoft YaHei','PingFang SC','Noto Sans CJK SC',sans-serif" font-size="12.5" fill="#3b4754">回复 · 草案 · 建议</text><rect rx="2" fill="#c2551a" x="471.3" y="392.5" width="57.2" height="15"></rect><text id="t26" x="522" y="403.8" font-family="'Segoe UI','Microsoft YaHei','PingFang SC','Noto Sans CJK SC',sans-serif" font-size="10.5" fill="#ffffff" font-weight="700" text-anchor="end">LLM 调用</text><rect x="640" y="400" width="200" height="104" rx="3" fill="#ffffff" stroke="#1f5fae" stroke-width="1.25"></rect><rect x="652" y="412" width="26" height="26" rx="3" fill="#1f5fae"></rect><g transform="translate(653.82,413.82) scale(0.93)" fill="none" stroke="#ffffff" stroke-width="1.7" stroke-linecap="round" stroke-linejoin="round"><path d="M12 3.5 19 6.5v5c0 4.3-3 7.6-7 9-4-1.4-7-4.7-7-9v-5z"></path><path d="m9 12 2.2 2.2 4-4.2"></path></g><text id="t27" x="688" y="430" font-family="'Cascadia Mono',Consolas,'Courier New',monospace" font-size="13.5" fill="#1d2731" font-weight="600">validate</text><line x1="652" y1="449" x2="828" y2="449" stroke="#e1e5e9" stroke-width="1"></line><text id="t28" x="654" y="467" font-family="'Segoe UI','Microsoft YaHei','PingFang SC','Noto Sans CJK SC',sans-serif" font-size="12.5" fill="#3b4754">格式校验 +</text><text id="t29" x="654" y="486" font-family="'Segoe UI','Microsoft YaHei','PingFang SC','Noto Sans CJK SC',sans-serif" font-size="12.5" fill="#3b4754">只读白名单</text><rect rx="2" fill="#1f5fae" x="762.5" y="392.5" width="67.0" height="15"></rect><text id="t30" x="822" y="403.8" font-family="'Segoe UI','Microsoft YaHei','PingFang SC','Noto Sans CJK SC',sans-serif" font-size="10.5" fill="#ffffff" font-weight="700" text-anchor="end">只读白名单</text><rect x="960" y="400" width="202" height="104" rx="3" fill="#ffffff" stroke="#b8c1ca" stroke-width="1.25"></rect><rect x="972" y="412" width="26" height="26" rx="3" fill="#55616d"></rect><g transform="translate(973.82,413.82) scale(0.93)" fill="none" stroke="#ffffff" stroke-width="1.7" stroke-linecap="round" stroke-linejoin="round"><path d="M4 5.5h16v11H10.5L6.5 20v-3.5H4z"></path><path d="M8 10h8M8 13h5"></path></g><text id="t31" x="1008" y="430" font-family="'Cascadia Mono',Consolas,'Courier New',monospace" font-size="13.5" fill="#1d2731" font-weight="600">respond</text><line x1="972" y1="449" x2="1150" y2="449" stroke="#e1e5e9" stroke-width="1"></line><text id="t32" x="974" y="467" font-family="'Segoe UI','Microsoft YaHei','PingFang SC','Noto Sans CJK SC',sans-serif" font-size="12.5" fill="#3b4754">回复 + 建议 + 候选，</text><text id="t33" x="974" y="486" font-family="'Segoe UI','Microsoft YaHei','PingFang SC','Noto Sans CJK SC',sans-serif" font-size="12.5" fill="#3b4754">等用户回话</text><path d="M 240 452 L 333.5 452" fill="none" stroke="#5b6774" stroke-width="1.4" stroke-linejoin="round" marker-end="url(#m5b6774)"></path><rect rx="2" fill="#ffffff" x="263.0" y="430.5" width="55.5" height="18.0"></rect><text id="t34" x="290" y="444" font-family="'Segoe UI','Microsoft YaHei','PingFang SC','Noto Sans CJK SC',sans-serif" font-size="11.5" fill="#5d6a77" text-anchor="middle">已给命令</text><path d="M 540 452 L 633.5 452" fill="none" stroke="#5b6774" stroke-width="1.4" stroke-linejoin="round" marker-end="url(#m5b6774)"></path><rect rx="2" fill="#ffffff" x="574.5" y="430.5" width="32.5" height="18.0"></rect><text id="t35" x="590" y="444" font-family="'Segoe UI','Microsoft YaHei','PingFang SC','Noto Sans CJK SC',sans-serif" font-size="11.5" fill="#5d6a77" text-anchor="middle">草案</text><path d="M 840 452 L 953.5 452" fill="none" stroke="#5b6774" stroke-width="1.4" stroke-linejoin="round" marker-end="url(#m5b6774)"></path><rect rx="2" fill="#ffffff" x="883.5" y="430.5" width="33.5" height="18.0"></rect><text id="t36" x="900" y="444" font-family="'Segoe UI','Microsoft YaHei','PingFang SC','Noto Sans CJK SC',sans-serif" font-size="11.5" fill="#1f5fae" text-anchor="middle">通过</text><rect x="50" y="560" width="240" height="140" rx="3" fill="#ffffff" stroke="#1f5fae" stroke-width="1.25"></rect><rect x="62" y="572" width="26" height="26" rx="3" fill="#1f5fae"></rect><g transform="translate(63.82,573.82) scale(0.93)" fill="none" stroke="#ffffff" stroke-width="1.7" stroke-linecap="round" stroke-linejoin="round"><path d="M12 20.5H6v-17h8.5L18 7v4"></path><circle cx="16" cy="16" r="3"></circle><path d="m18.2 18.2 2 2"></path></g><text id="t37" x="98" y="590" font-family="'Cascadia Mono',Consolas,'Courier New',monospace" font-size="13.5" fill="#1d2731" font-weight="600">lookup_commands</text><line x1="62" y1="609" x2="278" y2="609" stroke="#e1e5e9" stroke-width="1"></line><text id="t38" x="64" y="627" font-family="'Segoe UI','Microsoft YaHei','PingFang SC','Noto Sans CJK SC',sans-serif" font-size="12.5" fill="#3b4754">检索命令目录 + 文档库</text><text id="t39" x="64" y="646" font-family="'Segoe UI','Microsoft YaHei','PingFang SC','Noto Sans CJK SC',sans-serif" font-size="12.5" fill="#3b4754">候选逐条过只读白名单</text><text id="t40" x="64" y="665" font-family="'Segoe UI','Microsoft YaHei','PingFang SC','Noto Sans CJK SC',sans-serif" font-size="12.5" fill="#3b4754">被拒的候选标注出来</text><text id="t41" x="64" y="684" font-family="'Segoe UI','Microsoft YaHei','PingFang SC','Noto Sans CJK SC',sans-serif" font-size="12.5" fill="#3b4754">文档库为空：只用命令目录</text><rect rx="2" fill="#1f5fae" x="212.5" y="552.5" width="67.0" height="15"></rect><text id="t42" x="272" y="563.8" font-family="'Segoe UI','Microsoft YaHei','PingFang SC','Noto Sans CJK SC',sans-serif" font-size="10.5" fill="#ffffff" font-weight="700" text-anchor="end">只读白名单</text><rect x="410" y="560" width="210" height="104" rx="3" fill="#ffffff" stroke="#b8c1ca" stroke-width="1.25"></rect><rect x="422" y="572" width="26" height="26" rx="3" fill="#55616d"></rect><g transform="translate(423.82,573.82) scale(0.93)" fill="none" stroke="#ffffff" stroke-width="1.7" stroke-linecap="round" stroke-linejoin="round"><path d="M4 5.5h5.5c1.4 0 2.5 1.1 2.5 2.5v11.5c0-1-.8-1.8-1.8-1.8H4z"></path><path d="M20 5.5h-5.5C13.1 5.5 12 6.6 12 8v11.5c0-1 .8-1.8 1.8-1.8H20z"></path></g><text id="t43" x="458" y="590" font-family="'Cascadia Mono',Consolas,'Courier New',monospace" font-size="13.5" fill="#1d2731" font-weight="600">rules_fallback</text><line x1="422" y1="609" x2="608" y2="609" stroke="#e1e5e9" stroke-width="1"></line><text id="t44" x="424" y="627" font-family="'Segoe UI','Microsoft YaHei','PingFang SC','Noto Sans CJK SC',sans-serif" font-size="12.5" fill="#3b4754">按规则给草案，</text><text id="t45" x="424" y="646" font-family="'Segoe UI','Microsoft YaHei','PingFang SC','Noto Sans CJK SC',sans-serif" font-size="12.5" fill="#3b4754">仍可确认</text><rect x="650" y="560" width="200" height="104" rx="3" fill="#ffffff" stroke="#c2551a" stroke-width="1.25"></rect><rect x="662" y="572" width="26" height="26" rx="3" fill="#c2551a"></rect><g transform="translate(663.82,573.82) scale(0.93)" fill="none" stroke="#ffffff" stroke-width="1.7" stroke-linecap="round" stroke-linejoin="round"><path d="M14.5 4.5a4.5 4.5 0 0 0-4.2 6.1L4.5 16.4l3.1 3.1 5.8-5.8a4.5 4.5 0 0 0 6.1-4.2l-2.7 2.7-2.6-.6-.6-2.6z"></path></g><text id="t46" x="698" y="590" font-family="'Cascadia Mono',Consolas,'Courier New',monospace" font-size="13.5" fill="#1d2731" font-weight="600">repair</text><line x1="662" y1="609" x2="838" y2="609" stroke="#e1e5e9" stroke-width="1"></line><text id="t47" x="664" y="627" font-family="'Segoe UI','Microsoft YaHei','PingFang SC','Noto Sans CJK SC',sans-serif" font-size="12.5" fill="#3b4754">模型修正草案</text><text id="t48" x="664" y="646" font-family="'Segoe UI','Microsoft YaHei','PingFang SC','Noto Sans CJK SC',sans-serif" font-size="12.5" fill="#3b4754">最多 2 次，再回 validate</text><rect rx="2" fill="#c2551a" x="781.3" y="552.5" width="57.2" height="15"></rect><text id="t49" x="832" y="563.8" font-family="'Segoe UI','Microsoft YaHei','PingFang SC','Noto Sans CJK SC',sans-serif" font-size="10.5" fill="#ffffff" font-weight="700" text-anchor="end">LLM 调用</text><rect x="880" y="560" width="220" height="104" rx="3" fill="#ffffff" stroke="#c2551a" stroke-width="1.25"></rect><rect x="892" y="572" width="26" height="26" rx="3" fill="#c2551a"></rect><g transform="translate(893.82,573.82) scale(0.93)" fill="none" stroke="#ffffff" stroke-width="1.7" stroke-linecap="round" stroke-linejoin="round"><circle cx="12" cy="12" r="8"></circle><path d="m9 9 6 6M15 9l-6 6"></path></g><text id="t50" x="928" y="590" font-family="'Cascadia Mono',Consolas,'Courier New',monospace" font-size="13.5" fill="#1d2731" font-weight="600">respond_blocked</text><line x1="892" y1="609" x2="1088" y2="609" stroke="#e1e5e9" stroke-width="1"></line><text id="t51" x="894" y="627" font-family="'Segoe UI','Microsoft YaHei','PingFang SC','Noto Sans CJK SC',sans-serif" font-size="12.5" fill="#3b4754">不放行，</text><text id="t52" x="894" y="646" font-family="'Segoe UI','Microsoft YaHei','PingFang SC','Noto Sans CJK SC',sans-serif" font-size="12.5" fill="#3b4754">问题原样展示</text><path d="M 120 504 L 120 553.5" fill="none" stroke="#5b6774" stroke-width="1.4" stroke-linejoin="round" marker-end="url(#m5b6774)"></path><rect rx="2" fill="#ffffff" x="123.0" y="526.5" width="101.8" height="18.0"></rect><text id="t53" x="128" y="540" font-family="'Segoe UI','Microsoft YaHei','PingFang SC','Noto Sans CJK SC',sans-serif" font-size="11.5" fill="#5d6a77">没给命令 / 不记得</text><path d="M 290 600 L 356 600 L 356 510.5" fill="none" stroke="#5b6774" stroke-width="1.4" stroke-linejoin="round" marker-end="url(#m5b6774)"></path><rect rx="2" fill="#ffffff" x="295.0" y="578.5" width="56.5" height="18.0"></rect><text id="t54" x="323" y="592" font-family="'Segoe UI','Microsoft YaHei','PingFang SC','Noto Sans CJK SC',sans-serif" font-size="11.5" fill="#5d6a77" text-anchor="middle">候选命令</text><path d="M 500 504 L 500 553.5" fill="none" stroke="#c2551a" stroke-width="1.4" stroke-linejoin="round" marker-end="url(#mc2551a)"></path><rect rx="2" fill="#ffffff" x="429.5" y="526.5" width="67.0" height="18.0"></rect><text id="t55" x="492" y="540" font-family="'Segoe UI','Microsoft YaHei','PingFang SC','Noto Sans CJK SC',sans-serif" font-size="11.5" fill="#c2551a" text-anchor="end">模型不可用</text><path d="M 690 504 L 690 553.5" fill="none" stroke="#c2551a" stroke-width="1.4" stroke-linejoin="round" marker-end="url(#mc2551a)"></path><rect rx="2" fill="#ffffff" x="584.5" y="526.5" width="103.0" height="18.0"></rect><text id="t56" x="682" y="540" font-family="'Segoe UI','Microsoft YaHei','PingFang SC','Noto Sans CJK SC',sans-serif" font-size="11.5" fill="#c2551a" text-anchor="end">不过且修正 &lt; 2 次</text><path d="M 780 560 L 780 510.5" fill="none" stroke="#5b6774" stroke-width="1.4" stroke-linejoin="round" marker-end="url(#m5b6774)"></path><path d="M 650 630 L 626.5 630" fill="none" stroke="#c2551a" stroke-width="1.4" stroke-linejoin="round" marker-end="url(#mc2551a)"></path><path d="M 820 504 L 820 530 L 990 530 L 990 553.5" fill="none" stroke="#c2551a" stroke-width="1.4" stroke-linejoin="round" marker-end="url(#mc2551a)"></path><rect rx="2" fill="#ffffff" x="877.0" y="508.5" width="56.5" height="18.0"></rect><text id="t57" x="905" y="522" font-family="'Segoe UI','Microsoft YaHei','PingFang SC','Noto Sans CJK SC',sans-serif" font-size="11.5" fill="#c2551a" text-anchor="middle">修正用尽</text><rect x="360" y="744" width="310" height="140" rx="3" fill="#ffffff" stroke="#1f5fae" stroke-width="2.4"></rect><rect x="372" y="756" width="26" height="26" rx="3" fill="#1f5fae"></rect><g transform="translate(373.82,757.82) scale(0.93)" fill="none" stroke="#ffffff" stroke-width="1.7" stroke-linecap="round" stroke-linejoin="round"><circle cx="12" cy="8.5" r="3.5"></circle><path d="M5 20c.8-3.6 3.6-5.5 7-5.5s6.2 1.9 7 5.5"></path></g><text id="t58" x="408" y="774" font-family="'Cascadia Mono',Consolas,'Courier New',monospace" font-size="13.5" fill="#1d2731" font-weight="600">confirm_plan</text><rect rx="2" fill="#1f5fae" x="603.0" y="736.5" width="56.5" height="15"></rect><text id="t59" x="652" y="747.8" font-family="'Segoe UI','Microsoft YaHei','PingFang SC','Noto Sans CJK SC',sans-serif" font-size="10.5" fill="#ffffff" font-weight="700" text-anchor="end">人工确认</text><line x1="372" y1="793" x2="658" y2="793" stroke="#e1e5e9" stroke-width="1"></line><rect x="376" y="808" width="12" height="12" rx="2" fill="#ffffff" stroke="#1f5fae" stroke-width="1.4"></rect><path d="M378.5 814 l2.5 2.5 4.5 -5" fill="none" stroke="#1f5fae" stroke-width="1.6" stroke-linecap="round" stroke-linejoin="round"></path><text id="t60" x="398" y="818" font-family="'Segoe UI','Microsoft YaHei','PingFang SC','Noto Sans CJK SC',sans-serif" font-size="12.5" fill="#3b4754">实施的命令（按设备）</text><rect x="376" y="830" width="12" height="12" rx="2" fill="#ffffff" stroke="#1f5fae" stroke-width="1.4"></rect><path d="M378.5 836 l2.5 2.5 4.5 -5" fill="none" stroke="#1f5fae" stroke-width="1.6" stroke-linecap="round" stroke-linejoin="round"></path><text id="t61" x="398" y="840" font-family="'Segoe UI','Microsoft YaHei','PingFang SC','Noto Sans CJK SC',sans-serif" font-size="12.5" fill="#3b4754">实施的机器</text><rect x="376" y="852" width="12" height="12" rx="2" fill="#ffffff" stroke="#1f5fae" stroke-width="1.4"></rect><path d="M378.5 858 l2.5 2.5 4.5 -5" fill="none" stroke="#1f5fae" stroke-width="1.6" stroke-linecap="round" stroke-linejoin="round"></path><text id="t62" x="398" y="862" font-family="'Segoe UI','Microsoft YaHei','PingFang SC','Noto Sans CJK SC',sans-serif" font-size="12.5" fill="#3b4754">实施周期</text><path d="M 1140 504 L 1140 720 L 565 720 L 565 737.5" fill="none" stroke="#5b6774" stroke-width="1.4" stroke-linejoin="round" marker-end="url(#m5b6774)"></path><rect rx="2" fill="#ffffff" x="863.0" y="699.5" width="54.5" height="18.0"></rect><text id="t63" x="890" y="713" font-family="'Segoe UI','Microsoft YaHei','PingFang SC','Noto Sans CJK SC',sans-serif" font-size="11.5" fill="#5d6a77" text-anchor="middle">草案就绪</text><path d="M 515 664 L 515 737.5" fill="none" stroke="#5b6774" stroke-width="1.4" stroke-linejoin="round" marker-end="url(#m5b6774)"></path><path d="M 384 744 L 384 510.5" fill="none" stroke="#c2551a" stroke-width="1.4" stroke-linejoin="round" marker-end="url(#mc2551a)"></path><rect rx="2" fill="#ffffff" x="303.0" y="626.5" width="79.5" height="18.0"></rect><text id="t64" x="377" y="640" font-family="'Segoe UI','Microsoft YaHei','PingFang SC','Noto Sans CJK SC',sans-serif" font-size="11.5" fill="#c2551a" text-anchor="end">有一项未确认</text><path d="M 360 830 L 34 830 L 34 470 L 43.5 470" fill="none" stroke="#8a96a3" stroke-width="1.4" stroke-linejoin="round" marker-end="url(#m8a96a3)"></path><rect rx="2" fill="#ffffff" x="160.5" y="808.5" width="78.5" height="18.0"></rect><text id="t65" x="200" y="822" font-family="'Segoe UI','Microsoft YaHei','PingFang SC','Noto Sans CJK SC',sans-serif" font-size="11.5" fill="#5d6a77" text-anchor="middle">用户继续输入</text><path d="M 670 812 L 753.5 812" fill="none" stroke="#1f5fae" stroke-width="1.4" stroke-linejoin="round" marker-end="url(#m1f5fae)"></path><rect rx="2" fill="#ffffff" x="682.3" y="790.5" width="67.0" height="18.0"></rect><text id="t66" x="715" y="804" font-family="'Segoe UI','Microsoft YaHei','PingFang SC','Noto Sans CJK SC',sans-serif" font-size="11.5" fill="#1f5fae" font-weight="600" text-anchor="middle">三项都确认</text><rect x="760" y="760" width="230" height="104" rx="3" fill="#ffffff" stroke="#1f5fae" stroke-width="1.25"></rect><rect x="772" y="772" width="26" height="26" rx="3" fill="#1f5fae"></rect><g transform="translate(773.82,773.82) scale(0.93)" fill="none" stroke="#ffffff" stroke-width="1.7" stroke-linecap="round" stroke-linejoin="round"><path d="M6 3.5h8.5L18 7v13.5H6z"></path><path d="M9 10h6M9 13.5h6M9 17h4"></path></g><text id="t67" x="808" y="790" font-family="'Cascadia Mono',Consolas,'Courier New',monospace" font-size="13.5" fill="#1d2731" font-weight="600">save</text><line x1="772" y1="809" x2="978" y2="809" stroke="#e1e5e9" stroke-width="1"></line><text id="t68" x="774" y="827" font-family="'Segoe UI','Microsoft YaHei','PingFang SC','Noto Sans CJK SC',sans-serif" font-size="12.5" fill="#3b4754">再校验一次，然后</text><text id="t69" x="774" y="846" font-family="'Segoe UI','Microsoft YaHei','PingFang SC','Noto Sans CJK SC',sans-serif" font-size="12.5" fill="#3b4754">写入 <tspan font-family="'Cascadia Mono',Consolas,'Courier New',monospace" font-size="12">inspection-plans/*.yaml</tspan></text><rect rx="2" fill="#1f5fae" x="912.5" y="752.5" width="67.0" height="15"></rect><text id="t70" x="972" y="763.8" font-family="'Segoe UI','Microsoft YaHei','PingFang SC','Noto Sans CJK SC',sans-serif" font-size="10.5" fill="#ffffff" font-weight="700" text-anchor="end">只读白名单</text><rect x="1020" y="760" width="142" height="104" rx="3" fill="#ffffff" stroke="#b8c1ca" stroke-width="1.25"></rect><rect x="1032" y="772" width="26" height="26" rx="3" fill="#55616d"></rect><g transform="translate(1033.82,773.82) scale(0.93)" fill="none" stroke="#ffffff" stroke-width="1.7" stroke-linecap="round" stroke-linejoin="round"><path d="M3.5 12h4l2-5.5 4.5 11 2-5.5h4.5"></path></g><text id="t71" x="1068" y="790" font-family="'Segoe UI','Microsoft YaHei','PingFang SC','Noto Sans CJK SC',sans-serif" font-size="13.5" fill="#1d2731" font-weight="600">调度器</text><line x1="1032" y1="809" x2="1150" y2="809" stroke="#e1e5e9" stroke-width="1"></line><text id="t72" x="1034" y="827" font-family="'Segoe UI','Microsoft YaHei','PingFang SC','Noto Sans CJK SC',sans-serif" font-size="12.5" fill="#3b4754">注册调度，</text><text id="t73" x="1034" y="846" font-family="'Segoe UI','Microsoft YaHei','PingFang SC','Noto Sans CJK SC',sans-serif" font-size="12.5" fill="#3b4754">流程结束</text><path d="M 990 812 L 1013.5 812" fill="none" stroke="#5b6774" stroke-width="1.4" stroke-linejoin="round" marker-end="url(#m5b6774)"></path><path d="M 875 864 L 875 904 L 520 904 L 520 890.5" fill="none" stroke="#8a96a3" stroke-width="1.4" stroke-linejoin="round" marker-end="url(#m8a96a3)"></path><rect rx="2" fill="#ffffff" x="637.5" y="907.5" width="125.5" height="18.0"></rect><text id="t74" x="700" y="921" font-family="'Segoe UI','Microsoft YaHei','PingFang SC','Noto Sans CJK SC',sans-serif" font-size="11.5" fill="#5d6a77" text-anchor="middle">重名：改个名字再确认</text><rect x="24" y="944" width="1152" height="60" rx="3" fill="#ffffff" stroke="#c2551a" stroke-width="1.4"></rect><rect x="38" y="961" width="26" height="26" rx="3" fill="#c2551a"></rect><g transform="translate(39.82,962.82) scale(0.93)" fill="none" stroke="#ffffff" stroke-width="1.7" stroke-linecap="round" stroke-linejoin="round"><rect x="5.5" y="10.5" width="13" height="10" rx="1"></rect><path d="M8.5 10.5V8a3.5 3.5 0 0 1 7 0v2.5M12 14.5v2.5"></path></g><text id="t75" x="76" y="970" font-family="'Segoe UI','Microsoft YaHei','PingFang SC','Noto Sans CJK SC',sans-serif" font-size="13" fill="#1d2731" font-weight="600">写命令永远进不了计划：lookup_commands、validate、save 三处都过只读白名单。</text><text id="t76" x="76" y="990" font-family="'Segoe UI','Microsoft YaHei','PingFang SC','Noto Sans CJK SC',sans-serif" font-size="11.5" fill="#5d6a77">每次回复都结束本轮、等用户回话；下一条消息从 route_intent 重新进入。</text></svg>