<svg xmlns="http://www.w3.org/2000/svg" width="1200" height="540" viewBox="0 0 1200 540"><defs><marker id="m5b6774" viewBox="0 0 8 8" refX="1.5" refY="4" markerWidth="7.5" markerHeight="7.5" markerUnits="userSpaceOnUse" orient="auto-start-reverse"><path d="M0,0.6 L8,4 L0,7.4 z" fill="#5b6774"></path></marker><marker id="m8a96a3" viewBox="0 0 8 8" refX="1.5" refY="4" markerWidth="7.5" markerHeight="7.5" markerUnits="userSpaceOnUse" orient="auto-start-reverse"><path d="M0,0.6 L8,4 L0,7.4 z" fill="#8a96a3"></path></marker></defs><rect width="1200" height="540" fill="#ffffff"></rect><text id="t1" x="24" y="42" font-family="'Segoe UI','Microsoft YaHei','PingFang SC','Noto Sans CJK SC',sans-serif" font-size="21" fill="#1d2731" font-weight="700">Wiring up NetBox — which fields netops-ai reads</text><text id="t2" x="24" y="64" font-family="'Segoe UI','Microsoft YaHei','PingFang SC','Noto Sans CJK SC',sans-serif" font-size="13.5" fill="#7f8a96">接入 NetBox：读哪些字段</text><line x1="24" y1="84" x2="1176" y2="84" stroke="#e1e5e9" stroke-width="1"></line><rect x="24" y="100" width="430" height="360" rx="4" fill="#f4f6f8" stroke="#e2e6ea" stroke-width="1"></rect><text id="t3" x="38" y="121" font-family="'Segoe UI','Microsoft YaHei','PingFang SC','Noto Sans CJK SC',sans-serif" font-size="10.5" fill="#5d6a77" font-weight="700" letter-spacing="1.1">IN NETBOX</text><text id="t4" x="38" y="137" font-family="'Segoe UI','Microsoft YaHei','PingFang SC','Noto Sans CJK SC',sans-serif" font-size="11" fill="#7f8a96">在 NetBox 里（netops-ai 读取的字段）</text><rect x="38" y="150" width="402" height="290" rx="3" fill="#ffffff" stroke="#b8c1ca" stroke-width="1.25"></rect><rect x="55" y="168" width="5" height="5" fill="#1f5fae"></rect><text id="t5" x="70" y="175" font-family="'Segoe UI','Microsoft YaHei','PingFang SC','Noto Sans CJK SC',sans-serif" font-size="12.5" fill="#1d2731" font-weight="600">Device name + status <tspan font-family="'Cascadia Mono',Consolas,'Courier New',monospace" font-size="12">active</tspan></text><text id="t6" x="70" y="192" font-family="'Segoe UI','Microsoft YaHei','PingFang SC','Noto Sans CJK SC',sans-serif" font-size="11" fill="#7f8a96">设备名 + 状态 active</text><line x1="38" y1="208" x2="440" y2="208" stroke="#e1e5e9" stroke-width="1"></line><rect x="55" y="226" width="5" height="5" fill="#1f5fae"></rect><text id="t7" x="70" y="233" font-family="'Segoe UI','Microsoft YaHei','PingFang SC','Noto Sans CJK SC',sans-serif" font-size="12.5" fill="#1d2731" font-weight="600">Device role slug  <tspan font-family="'Cascadia Mono',Consolas,'Courier New',monospace" font-size="12">core</tspan> / <tspan font-family="'Cascadia Mono',Consolas,'Courier New',monospace" font-size="12">aggregation</tspan> / <tspan font-family="'Cascadia Mono',Consolas,'Courier New',monospace" font-size="12">access</tspan></text><text id="t8" x="70" y="250" font-family="'Segoe UI','Microsoft YaHei','PingFang SC','Noto Sans CJK SC',sans-serif" font-size="11" fill="#7f8a96">设备角色 slug</text><line x1="38" y1="266" x2="440" y2="266" stroke="#e1e5e9" stroke-width="1"></line><rect x="55" y="284" width="5" height="5" fill="#1f5fae"></rect><text id="t9" x="70" y="291" font-family="'Segoe UI','Microsoft YaHei','PingFang SC','Noto Sans CJK SC',sans-serif" font-size="12.5" fill="#1d2731" font-weight="600">Primary IPv4  (management address)</text><text id="t10" x="70" y="308" font-family="'Segoe UI','Microsoft YaHei','PingFang SC','Noto Sans CJK SC',sans-serif" font-size="11" fill="#7f8a96">主 IPv4（管理地址）</text><line x1="38" y1="324" x2="440" y2="324" stroke="#e1e5e9" stroke-width="1"></line><rect x="55" y="342" width="5" height="5" fill="#1f5fae"></rect><text id="t11" x="70" y="349" font-family="'Segoe UI','Microsoft YaHei','PingFang SC','Noto Sans CJK SC',sans-serif" font-size="12.5" fill="#1d2731" font-weight="600">Interfaces + cables  (link peers)</text><text id="t12" x="70" y="366" font-family="'Segoe UI','Microsoft YaHei','PingFang SC','Noto Sans CJK SC',sans-serif" font-size="11" fill="#7f8a96">接口与线缆（链路对端）</text><line x1="38" y1="382" x2="440" y2="382" stroke="#e1e5e9" stroke-width="1"></line><rect x="55" y="400" width="5" height="5" fill="#1f5fae"></rect><text id="t13" x="70" y="407" font-family="'Segoe UI','Microsoft YaHei','PingFang SC','Noto Sans CJK SC',sans-serif" font-size="12.5" fill="#1d2731" font-weight="600">Custom field  <tspan font-family="'Cascadia Mono',Consolas,'Courier New',monospace" font-size="12">zabbix_host</tspan>  (the alias)</text><text id="t14" x="70" y="424" font-family="'Segoe UI','Microsoft YaHei','PingFang SC','Noto Sans CJK SC',sans-serif" font-size="11" fill="#7f8a96">自定义字段 zabbix_host（别名）</text><rect x="610" y="203" width="230" height="122" rx="3" fill="#ffffff" stroke="#1f5fae" stroke-width="1.8"></rect><rect x="622" y="215" width="26" height="26" rx="3" fill="#1f5fae"></rect><g transform="translate(623.82,216.82) scale(0.93)" fill="none" stroke="#ffffff" stroke-width="1.7" stroke-linecap="round" stroke-linejoin="round"><rect x="4.5" y="4" width="15" height="7" rx="1"></rect><rect x="4.5" y="13" width="15" height="7" rx="1"></rect><path d="M8 7.5h.01M8 16.5h.01"></path></g><text id="t15" x="658" y="228" font-family="'Segoe UI','Microsoft YaHei','PingFang SC','Noto Sans CJK SC',sans-serif" font-size="13.5" fill="#1d2731" font-weight="600">netops-ai</text><text id="t16" x="658" y="245" font-family="'Segoe UI','Microsoft YaHei','PingFang SC','Noto Sans CJK SC',sans-serif" font-size="11.5" fill="#7f8a96">本项目</text><line x1="622" y1="257" x2="828" y2="257" stroke="#e1e5e9" stroke-width="1"></line><text id="t17" x="624" y="276" font-family="'Segoe UI','Microsoft YaHei','PingFang SC','Noto Sans CJK SC',sans-serif" font-size="12" fill="#3b4754"><tspan font-family="'Cascadia Mono',Consolas,'Courier New',monospace" font-size="11.5">load_topology()</tspan></text><text id="t18" x="624" y="293" font-family="'Segoe UI','Microsoft YaHei','PingFang SC','Noto Sans CJK SC',sans-serif" font-size="12" fill="#3b4754">cached 600 s</text><text id="t19" x="624" y="310" font-family="'Segoe UI','Microsoft YaHei','PingFang SC','Noto Sans CJK SC',sans-serif" font-size="11.5" fill="#7f8a96">缓存 600 秒</text><path d="M 454 236 L 603.5 236" fill="none" stroke="#5b6774" stroke-width="1.4" stroke-linejoin="round" marker-end="url(#m5b6774)"></path><rect rx="2" fill="#ffffff" x="479.7" y="216.5" width="105.2" height="16.0"></rect><text id="t20" x="532" y="228" font-family="'Cascadia Mono',Consolas,'Courier New',monospace" font-size="11" fill="#5d6a77" text-anchor="middle">GET /api/dcim/…</text><rect rx="2" fill="#ffffff" x="488.5" y="238.5" width="86.0" height="18.0"></rect><text id="t21" x="532" y="252" font-family="'Segoe UI','Microsoft YaHei','PingFang SC','Noto Sans CJK SC',sans-serif" font-size="11" fill="#7f8a96" text-anchor="middle">拉取（带缓存）</text><path d="M 454 300 L 603.5 300" fill="none" stroke="#8a96a3" stroke-width="1.4" stroke-dasharray="5 4" stroke-linejoin="round" marker-end="url(#m8a96a3)"></path><rect rx="2" fill="#ffffff" x="473.8" y="278.5" width="117.0" height="18.0"></rect><text id="t22" x="532" y="292" font-family="'Segoe UI','Microsoft YaHei','PingFang SC','Noto Sans CJK SC',sans-serif" font-size="11" fill="#5d6a77" text-anchor="middle">event rule → webhook</text><rect rx="2" fill="#ffffff" x="477.5" y="302.5" width="108.0" height="18.0"></rect><text id="t23" x="532" y="316" font-family="'Segoe UI','Microsoft YaHei','PingFang SC','Noto Sans CJK SC',sans-serif" font-size="11" fill="#7f8a96" text-anchor="middle">变更时推送（可选）</text><rect x="900" y="120" width="276" height="88" rx="3" fill="#ffffff" stroke="#b8c1ca" stroke-width="1.25"></rect><rect x="912" y="132" width="26" height="26" rx="3" fill="#55616d"></rect><g transform="translate(913.82,133.82) scale(0.93)" fill="none" stroke="#ffffff" stroke-width="1.7" stroke-linecap="round" stroke-linejoin="round"><circle cx="12" cy="5.5" r="2.3"></circle><circle cx="5.5" cy="18" r="2.3"></circle><circle cx="18.5" cy="18" r="2.3"></circle><path d="M11 7.6 6.6 16M13 7.6l4.4 8.4M7.8 18h8.4"></path></g><text id="t24" x="948" y="145" font-family="'Segoe UI','Microsoft YaHei','PingFang SC','Noto Sans CJK SC',sans-serif" font-size="13.5" fill="#1d2731" font-weight="600">Topology page</text><text id="t25" x="948" y="162" font-family="'Segoe UI','Microsoft YaHei','PingFang SC','Noto Sans CJK SC',sans-serif" font-size="11.5" fill="#7f8a96">拓扑页</text><text id="t26" x="914" y="181" font-family="'Segoe UI','Microsoft YaHei','PingFang SC','Noto Sans CJK SC',sans-serif" font-size="12" fill="#3b4754">layers · links · faults</text><text id="t27" x="914" y="198" font-family="'Segoe UI','Microsoft YaHei','PingFang SC','Noto Sans CJK SC',sans-serif" font-size="11.5" fill="#7f8a96">分层 · 链路 · 故障</text><rect x="900" y="220" width="276" height="88" rx="3" fill="#ffffff" stroke="#c2551a" stroke-width="1.25"></rect><rect x="912" y="232" width="26" height="26" rx="3" fill="#c2551a"></rect><g transform="translate(913.82,233.82) scale(0.93)" fill="none" stroke="#ffffff" stroke-width="1.7" stroke-linecap="round" stroke-linejoin="round"><circle cx="10.5" cy="10.5" r="5.5"></circle><path d="m14.5 14.5 5 5"></path></g><text id="t28" x="948" y="245" font-family="'Cascadia Mono',Consolas,'Courier New',monospace" font-size="13.5" fill="#1d2731" font-weight="600">topology_neighbors</text><text id="t29" x="948" y="262" font-family="'Segoe UI','Microsoft YaHei','PingFang SC','Noto Sans CJK SC',sans-serif" font-size="11.5" fill="#7f8a96">agent 工具</text><text id="t30" x="914" y="281" font-family="'Segoe UI','Microsoft YaHei','PingFang SC','Noto Sans CJK SC',sans-serif" font-size="12" fill="#3b4754">neighbors · role · IP</text><text id="t31" x="914" y="298" font-family="'Segoe UI','Microsoft YaHei','PingFang SC','Noto Sans CJK SC',sans-serif" font-size="11.5" fill="#7f8a96">邻居 · 角色 · IP</text><rect x="900" y="320" width="276" height="88" rx="3" fill="#ffffff" stroke="#b8c1ca" stroke-width="1.25"></rect><rect x="912" y="332" width="26" height="26" rx="3" fill="#55616d"></rect><g transform="translate(913.82,333.82) scale(0.93)" fill="none" stroke="#ffffff" stroke-width="1.7" stroke-linecap="round" stroke-linejoin="round"><path d="M4 4.5h7.5l8.5 8.5-7 7-8.5-8.5z"></path><circle cx="8.5" cy="9" r="1.3"></circle></g><text id="t32" x="948" y="345" font-family="'Segoe UI','Microsoft YaHei','PingFang SC','Noto Sans CJK SC',sans-serif" font-size="13.5" fill="#1d2731" font-weight="600">Alias lookup</text><text id="t33" x="948" y="362" font-family="'Segoe UI','Microsoft YaHei','PingFang SC','Noto Sans CJK SC',sans-serif" font-size="11.5" fill="#7f8a96">别名对照</text><text id="t34" x="914" y="381" font-family="'Segoe UI','Microsoft YaHei','PingFang SC','Noto Sans CJK SC',sans-serif" font-size="12" fill="#3b4754">Zabbix host name → device</text><text id="t35" x="914" y="398" font-family="'Segoe UI','Microsoft YaHei','PingFang SC','Noto Sans CJK SC',sans-serif" font-size="11.5" fill="#7f8a96">Zabbix 主机名 → 设备</text><path d="M 840 264 L 870 264" fill="none" stroke="#5b6774" stroke-width="1.4" stroke-linejoin="round"></path><path d="M 870 164 L 870 364" fill="none" stroke="#5b6774" stroke-width="1.4" stroke-linejoin="round"></path><circle cx="870" cy="264" r="3" fill="#5b6774"></circle><path d="M 870 164 L 893.5 164" fill="none" stroke="#5b6774" stroke-width="1.4" stroke-linejoin="round" marker-end="url(#m5b6774)"></path><path d="M 870 264 L 893.5 264" fill="none" stroke="#5b6774" stroke-width="1.4" stroke-linejoin="round" marker-end="url(#m5b6774)"></path><path d="M 870 364 L 893.5 364" fill="none" stroke="#5b6774" stroke-width="1.4" stroke-linejoin="round" marker-end="url(#m5b6774)"></path><rect x="635" y="400" width="180" height="60" rx="3" fill="#ffffff" stroke="#b8c1ca" stroke-width="1.25" stroke-dasharray="4 3"></rect><rect x="647" y="412" width="26" height="26" rx="3" fill="#55616d"></rect><g transform="translate(648.82,413.82) scale(0.93)" fill="none" stroke="#ffffff" stroke-width="1.7" stroke-linecap="round" stroke-linejoin="round"><path d="M6 3.5h8.5L18 7v13.5H6z"></path><path d="M9 10h6M9 13.5h6M9 17h4"></path></g><text id="t36" x="683" y="425" font-family="'Cascadia Mono',Consolas,'Courier New',monospace" font-size="12.5" fill="#1d2731" font-weight="600">topology.yaml</text><text id="t37" x="683" y="442" font-family="'Segoe UI','Microsoft YaHei','PingFang SC','Noto Sans CJK SC',sans-serif" font-size="11.5" fill="#7f8a96">本地兜底文件</text><path d="M 725 400 L 725 331.5" fill="none" stroke="#8a96a3" stroke-width="1.4" stroke-dasharray="5 4" stroke-linejoin="round" marker-end="url(#m8a96a3)"></path><rect rx="2" fill="#ffffff" x="729.0" y="354.5" width="76.4" height="18.0"></rect><text id="t38" x="733" y="368" font-family="'Segoe UI','Microsoft YaHei','PingFang SC','Noto Sans CJK SC',sans-serif" font-size="11" fill="#5d6a77">fallback · 兜底</text><rect x="870" y="420" width="2" height="76" fill="#1f5fae"></rect><text id="t39" x="884" y="434" font-family="'Segoe UI','Microsoft YaHei','PingFang SC','Noto Sans CJK SC',sans-serif" font-size="12" fill="#3b4754">NetBox down? the last good result is reused,</text><text id="t40" x="884" y="451" font-family="'Segoe UI','Microsoft YaHei','PingFang SC','Noto Sans CJK SC',sans-serif" font-size="12" fill="#3b4754">otherwise <tspan font-family="'Cascadia Mono',Consolas,'Courier New',monospace" font-size="11.5">topology.yaml</tspan> is the fallback.</text><text id="t41" x="884" y="474" font-family="'Segoe UI','Microsoft YaHei','PingFang SC','Noto Sans CJK SC',sans-serif" font-size="11" fill="#7f8a96">NetBox 不可用时先沿用上一次成功的结果，</text><text id="t42" x="884" y="491" font-family="'Segoe UI','Microsoft YaHei','PingFang SC','Noto Sans CJK SC',sans-serif" font-size="11" fill="#7f8a96">没有历史结果就退回 topology.yaml。</text></svg>